Coordinates
version=1
nRows=14
nColumns=24
inDegrees=yes

Units are S.I. units (second, meters, Newtons, ...)
Angles are in degrees.

endheader
time	pelvis_tilt	pelvis_list	pelvis_rotation	pelvis_tx	pelvis_ty	pelvis_tz	hip_flexion_r	hip_adduction_r	hip_rotation_r	knee_angle_r	ankle_angle_r	subtalar_angle_r	mtp_angle_r	hip_flexion_l	hip_adduction_l	hip_rotation_l	knee_angle_l	ankle_angle_l	subtalar_angle_l	mtp_angle_l	lumbar_extension	lumbar_bending	lumbar_rotation
      3.42500000	     -2.26833011	     -5.17847676	     -4.10257519	     -1.18292902	      0.93966417	      0.23396294	     12.70713490	     12.80106487	      7.97986192	    -21.54729715	     13.56280581	    -14.94673414	      0.00000000	     25.76238872	     -5.31292660	     -3.76684249	    -69.11416324	     10.43709903	    -16.01391937	      0.00000000	     -9.84364164	      4.59032992	     -2.69267659
      3.43000000	     -2.20495606	     -4.95251218	     -4.25108728	     -1.17657679	      0.94062900	      0.23457420	     11.97413135	     12.58734367	      8.31758628	    -21.13831655	     13.69197974	    -15.03680050	      0.00000000	     26.26506632	     -5.09772390	     -3.82626541	    -68.26092868	     10.96006364	    -15.41005868	      0.00000000	     -9.89087476	      4.24739676	     -2.50755225
      3.43500000	     -2.13874521	     -4.73583840	     -4.40109930	     -1.17023508	      0.94151411	      0.23517160	     11.24433057	     12.37626059	      8.64792538	    -20.73419382	     13.84354446	    -15.11836770	      0.00000000	     26.73781223	     -4.89121348	     -3.88818272	    -67.33119401	     11.43081880	    -14.85093537	      0.00000000	     -9.94080638	      3.91900689	     -2.29878742
      3.44000000	     -2.06739019	     -4.52825706	     -4.55115417	     -1.16389599	      0.94232393	      0.23575483	     10.51602528	     12.16866466	      8.97385618	    -20.33782996	     14.00391682	    -15.19853479	      0.00000000	     27.17479400	     -4.68955003	     -3.94871823	    -66.32162652	     11.85574600	    -14.35331007	      0.00000000	     -9.99910909	      3.60193653	     -2.07656049
      3.44500000	     -2.02022269	     -4.32852637	     -4.69037247	     -1.15755538	      0.94302292	      0.23629863	      9.83222470	     11.96008923	      9.25246441	    -19.96653689	     14.16741287	    -15.25128017	      0.00000000	     27.60601560	     -4.48407129	     -3.99058728	    -65.22656591	     12.24681957	    -13.92799543	      0.00000000	    -10.02371111	      3.29986533	     -1.89260119
      3.45000000	     -1.96289159	     -4.14184298	     -4.83088646	     -1.15120923	      0.94364010	      0.23683826	      9.14234230	     11.76217545	      9.53636315	    -19.60241918	     14.34527624	    -15.31297561	      0.00000000	     27.99699577	     -4.29152949	     -4.03407589	    -64.05828591	     12.59103438	    -13.56710353	      0.00000000	    -10.06067891	      3.01230529	     -1.67986275
      3.45500000	     -1.91419934	     -3.96836104	     -4.96680781	     -1.14484414	      0.94415602	      0.23734980	      8.47523427	     11.57469764	      9.80037441	    -19.26044312	     14.53013097	    -15.38272193	      0.00000000	     28.36320881	     -4.10609653	     -4.06609187	    -62.81037370	     12.89587226	    -13.26815833	      0.00000000	    -10.07848340	      2.74789079	     -1.48599445
      3.46000000	     -1.93223989	     -3.81348188	     -5.05519438	     -1.13851891	      0.94445627	      0.23776253	      7.91321477	     11.40136594	      9.97560618	    -18.96274401	     14.71826723	    -15.43940772	      0.00000000	     28.78593295	     -3.90886230	     -4.02776237	    -61.49931875	     13.20390921	    -13.02557233	      0.00000000	    -10.02742020	      2.51995617	     -1.37314217
      3.46500000	     -1.83435899	     -3.66336785	     -5.22596355	     -1.13214334	      0.94486978	      0.23827940	      7.20166155	     11.23791973	     10.32543824	    -18.64858469	     14.89856312	    -15.54781995	      0.00000000	     29.02113114	     -3.75316083	     -4.08488749	    -60.08856507	     13.43255834	    -12.86806122	      0.00000000	    -10.10866861	      2.27512573	     -1.09316164
      3.47000000	     -1.82308079	     -3.53348144	     -5.33114763	     -1.12574528	      0.94503553	      0.23872101	      6.60743024	     11.09419386	     10.55786558	    -18.36548471	     15.08946728	    -15.66465087	      0.00000000	     29.33635288	     -3.59616516	     -4.07280307	    -58.62493644	     13.66464573	    -12.71992957	      0.00000000	    -10.07750784	      2.07155315	     -0.95831356
      3.47500000	     -1.79942710	     -3.41486160	     -5.45209493	     -1.11937772	      0.94513205	      0.23912789	      6.01104030	     10.96131806	     10.83069382	    -18.10578454	     15.27919177	    -15.79689605	      0.00000000	     29.60107434	     -3.44352291	     -4.04861528	    -57.08425659	     13.86499859	    -12.62303342	      0.00000000	    -10.07285651	      1.88287101	     -0.77865116
      3.48000000	     -1.74643452	     -3.31438533	     -5.58346960	     -1.11303082	      0.94519017	      0.23950338	      5.38476621	     10.84540106	     11.16087758	    -17.85486714	     15.44983944	    -15.97162202	      0.00000000	     29.79814639	     -3.29863222	     -3.99594560	    -55.47164097	     14.02509936	    -12.55889405	      0.00000000	    -10.11741767	      1.72043004	     -0.54937263
      3.48500000	     -1.72350684	     -3.22661952	     -5.69438547	     -1.10665523	      0.94510814	      0.23986518	      4.80112474	     10.74441067	     11.45740274	    -17.62506682	     15.63377187	    -16.15171938	      0.00000000	     29.99706761	     -3.16957468	     -3.93367194	    -53.79422422	     14.18210224	    -12.48927195	      0.00000000	    -10.11791201	      1.57446292	     -0.37332472
      3.49000000	     -1.70665651	     -3.14916296	     -5.80846534	     -1.10027138	      0.94493591	      0.24022087	      4.22977534	     10.65315680	     11.75571844	    -17.40917162	     15.82929209	    -16.32805973	      0.00000000	     30.16686701	     -3.05342227	     -3.86063447	    -52.04942015	     14.31799757	    -12.41740470	      0.00000000	    -10.11332547	      1.44164719	     -0.20003629
